<?xml version="1.0" standalone="no"?>
<!DOCTYPE svg PUBLIC "-//W3C//DTD SVG 20010904//EN"
 "http://www.w3.org/TR/2001/REC-SVG-20010904/DTD/svg10.dtd">
<svg version="1.0" xmlns="http://www.w3.org/2000/svg"
 width="620.000000pt" height="620.000000pt" viewBox="0 0 620.000000 620.000000"
 preserveAspectRatio="xMidYMid meet">

<g transform="translate(0.000000,620.000000) scale(0.100000,-0.100000)"
fill="currentColor" stroke="none">
<path d="M3485 5806 c-47 -21 -67 -51 -147 -221 -42 -88 -165 -347 -273 -575
-183 -385 -197 -418 -192 -459 3 -30 13 -52 33 -72 36 -35 738 -369 777 -369
33 0 75 20 98 46 9 11 60 109 112 219 52 110 172 362 266 560 95 198 177 376
183 397 9 32 8 43 -13 85 l-24 48 -365 173 c-201 96 -378 176 -395 178 -16 2
-43 -2 -60 -10z"/>
<path d="M4150 4708 c-28 -61 -50 -112 -47 -114 2 -2 64 -32 138 -67 74 -36
265 -126 424 -202 301 -143 556 -264 928 -441 119 -57 220 -104 223 -104 12 0
105 213 97 221 -8 8 -149 76 -683 329 -102 48 -232 110 -290 138 -58 27 -197
93 -310 147 -113 54 -255 121 -316 150 l-112 53 -52 -110z"/>
<path d="M374 3519 c-89 -26 -109 -104 -52 -210 150 -283 777 -720 1278 -892
94 -32 282 -77 324 -77 14 0 16 52 16 529 l0 529 -67 12 c-251 44 -649 90
-948 110 -183 12 -509 12 -551 -1z"/>
<path d="M2070 2885 l0 -605 45 0 c111 0 330 -64 479 -139 187 -96 316 -213
383 -348 36 -74 38 -81 38 -178 0 -96 -2 -104 -37 -175 -43 -87 -105 -163
-203 -250 -86 -76 -311 -239 -339 -245 -12 -2 -100 -22 -196 -44 -96 -22 -210
-47 -252 -56 l-78 -17 0 -229 0 -229 1830 0 1830 0 0 224 c0 130 -4 227 -9
231 -6 3 -148 35 -318 71 -169 36 -317 71 -328 78 -11 7 -52 44 -90 82 -219
214 -337 472 -321 701 38 544 385 920 996 1079 112 29 317 64 378 64 l42 0 0
295 0 295 -1925 0 -1925 0 0 -605z m2010 -2000 c153 -22 270 -46 270 -56 0 -5
-286 -9 -637 -9 -449 0 -634 3 -626 11 14 14 250 57 380 68 143 13 482 5 613
-14z"/>
</g>
</svg>
